# xmcd
#
# Track frame offsets:
#	150
#	16090
#	31830
#	50855
#	63145
#	79160
#	97140
#	114880
#	132700
#	149970
#
# Disc length: 2217 seconds
#
# Revision: 0
# Processed by: cddbd v1.5.2PL0 Copyright (c) Steve Scherf et al.
# Submitted via: dBpowerAMP V4.0
#
DISCID=8e08a70a
DTITLE=Various Artist - Aquelas Antigas
DYEAR=1900
DGENRE=Blues
TTITLE0=Suave é a Noite
TTITLE1=Doce Amargura
TTITLE2=Querida
TTITLE3=Que será de Ti
TTITLE4=Eu Te Darei Bem Mais
TTITLE5=Cartas Na Mesa
TTITLE6=Eu Nunca Mais Vou Te Esquecer
TTITLE7=Seu Amor Ainda É Tudo
TTITLE8=Pedágio
TTITLE9=Moacir Franco - Balada
EXTD=
EXTT0=
EXTT1=
EXTT2=
EXTT3=
EXTT4=
EXTT5=
EXTT6=
EXTT7=
EXTT8=
EXTT9=
PLAYORDER=
